<?xml version="1.0" encoding="utf-8"?>
<!-- Generator: Adobe Illustrator 24.1.0, SVG Export Plug-In . SVG Version: 6.00 Build 0)  -->
<svg version="1.1" id="Layer_1" xmlns="http://www.w3.org/2000/svg" xmlns:xlink="http://www.w3.org/1999/xlink" x="0px" y="0px"
	 viewBox="0 0 25.5 25.3" style="enable-background:new 0 0 25.5 25.3;" xml:space="preserve">
<style type="text/css">
	.st0{fill:#F24900;}
</style>
<path class="st0" d="M4.1,24.7H12v-8.5H9.2v-2.8H12V9.8c0-1.9,1.6-3.5,3.5-3.5H19v2.8h-2.8c-0.8,0-1.4,0.6-1.4,1.4v2.8h4.1l-0.5,2.8
	h-3.6v8.5h6.3c1.9,0,3.5-1.6,3.5-3.5v-17c0-1.9-1.6-3.5-3.5-3.5h-17c-1.9,0-3.5,1.6-3.5,3.5v17C0.6,23.1,2.2,24.7,4.1,24.7z M2,4.2
	C2,3,3,2.1,4.1,2.1h17c1.2,0,2.1,0.9,2.1,2.1v17c0,1.2-0.9,2.1-2.1,2.1h-4.9v-5.7h3.4l0.9-5.6h-4.3v-1.4h4.2V4.9h-4.9
	c-2.7,0-4.9,2.2-4.9,4.9v2.1H7.7v5.6h2.8v5.7H4.1C3,23.3,2,22.3,2,21.2V4.2z"/>
</svg>
