<?xml version="1.0" encoding="utf-8"?>
<!-- Generator: Adobe Illustrator 24.1.0, SVG Export Plug-In . SVG Version: 6.00 Build 0)  -->
<svg version="1.1" id="Capa_1" xmlns="http://www.w3.org/2000/svg" xmlns:xlink="http://www.w3.org/1999/xlink" x="0px" y="0px"
	 viewBox="0 0 25.1 25.2" style="enable-background:new 0 0 25.1 25.2;" xml:space="preserve">
<style type="text/css">
	.st0{fill:#F24900;}
</style>
<g>
	<g>
		<g>
			<path class="st0" d="M17.2,0.7h-9C4,0.7,0.7,4,0.7,8.2v9c0,4.1,3.4,7.5,7.5,7.5h9c4.1,0,7.5-3.4,7.5-7.5v-9
				C24.7,4,21.3,0.7,17.2,0.7z M22.4,17.2c0,2.9-2.4,5.2-5.2,5.2h-9c-2.9,0-5.2-2.4-5.2-5.2v-9c0-2.9,2.4-5.2,5.2-5.2h9
				c2.9,0,5.2,2.4,5.2,5.2V17.2z"/>
		</g>
	</g>
	<g>
		<g>
			<path class="st0" d="M12.7,6.7c-3.3,0-6,2.7-6,6s2.7,6,6,6s6-2.7,6-6S16,6.7,12.7,6.7z M12.7,16.4c-2.1,0-3.8-1.7-3.8-3.8
				c0-2.1,1.7-3.8,3.8-3.8s3.8,1.7,3.8,3.8C16.4,14.7,14.7,16.4,12.7,16.4z"/>
		</g>
	</g>
	<g>
		<g>
			<circle class="st0" cx="19.1" cy="6.2" r="0.8"/>
		</g>
	</g>
</g>
</svg>
