<svg id="Layer_1" data-name="Layer 1" xmlns="http://www.w3.org/2000/svg" viewBox="0 0 293.85 92.86"><defs><style>.cls-1{fill:#fff;}.cls-2{fill:#f24900;}</style></defs><path class="cls-1" d="M208.74,37.6c-1.32-12.44-8.94-22.93-19.91-27.39a31,31,0,0,0-32.34,5.91,31.67,31.67,0,0,0-19.42-7.94,30.7,30.7,0,0,0-22.84,8.44,33,33,0,0,0-10,21.16,33.81,33.81,0,0,0,1.36,12.5L52,50.16h0A3.71,3.71,0,0,0,48.62,52a4.33,4.33,0,0,0,0,4.27A3.77,3.77,0,0,0,52,58.15l59.32.13h0a3.69,3.69,0,0,0,3.21-1.66,4.53,4.53,0,0,0,.29-4.24c-4.65-10.75-2.92-22.07,4.52-29.54a22.57,22.57,0,0,1,16.9-6.72,24.28,24.28,0,0,1,17.43,8.47,4,4,0,0,0,5.75,0c6.82-7.9,17.18-10.66,26.38-7a24.55,24.55,0,0,1,15,20.26,4.25,4.25,0,0,0,4.77,3.73A3.44,3.44,0,0,0,208.74,37.6Z" transform="translate(-10.06 -8)"/><rect class="cls-1" x="16.76" y="10.88" width="13.76" height="70.02" rx="3.76"/><rect class="cls-1" y="19.06" width="13.76" height="53.66" rx="3.7"/><rect class="cls-1" x="33.51" y="3.7" width="13.76" height="84.38" rx="3.82"/><path class="cls-2" d="M261.45,52a3.62,3.62,0,0,0-3.33-1.84l-56.18.13a4,4,0,0,0-3.49,2.08c-6.34,14.08-19.24,24.68-28.39,31.43-4.06,3-8.19,5.75-12.28,8.23l-.38.24c-.6.38-.6.38-1.17.15a25.74,25.74,0,0,1-4.68-2.8c-.62-.43-1.22-.85-1.82-1.24-4.14-2.68-7.75-5.24-11-7.81a101.57,101.57,0,0,1-16.49-16,3.43,3.43,0,0,0-5-.52,4.24,4.24,0,0,0-.74,6,102.29,102.29,0,0,0,16.1,15.76c3.73,3,7.68,5.85,11.76,8.54,2.09,1.38,4.29,2.77,6.55,4.13l.48.3c1.62,1,3.41,2.08,5.52,2.08a6.42,6.42,0,0,0,1.35-.15,15.55,15.55,0,0,0,4.89-2.51c.4-.26.78-.52,1.15-.75,2.42-1.53,4.85-3.16,7.24-4.84a147.69,147.69,0,0,0,17.6-14.39c7-6.76,12.05-13.31,15.4-19.94l53.66-.13a3.76,3.76,0,0,0,3.34-1.88A4.33,4.33,0,0,0,261.45,52Z" transform="translate(-10.06 -8)"/><rect class="cls-2" x="273.38" y="18.88" width="13.76" height="70.02" rx="3.76" transform="translate(550.47 99.77) rotate(180)"/><rect class="cls-2" x="290.14" y="27.06" width="13.76" height="53.66" rx="3.7" transform="translate(583.98 99.77) rotate(180)"/><rect class="cls-2" x="256.62" y="11.7" width="13.76" height="84.38" rx="3.82" transform="translate(516.96 99.77) rotate(-180)"/></svg>