<?xml version="1.0" encoding="utf-8"?>
<!-- Generator: Adobe Illustrator 24.1.0, SVG Export Plug-In . SVG Version: 6.00 Build 0)  -->
<svg version="1.1" id="e9321c55-7aa4-4d8e-a3d7-7280e303cff0"
	 xmlns="http://www.w3.org/2000/svg" xmlns:xlink="http://www.w3.org/1999/xlink" x="0px" y="0px" viewBox="0 0 449.5 244.3"
	 style="enable-background:new 0 0 449.5 244.3;" xml:space="preserve">
<style type="text/css">
	.st0{fill:#F7F7F7;}
	.st1{fill:#12123A;}
	.st2{fill:#F2F2F2;}
	.st3{fill:#A0616A;}
	.st4{fill:#F24900;}
	.st5{fill:#3F3D56;}
</style>
<path class="st0" d="M7,40.4v197.5h292.7c0,0,0.1,0,0.1,0H321c0.1,0,0.1,0,0.1,0H402V40.4H7z"/>
<path class="st1" d="M436.4,210.5h-397V11h397V210.5z M41.3,208.5h393V13h-393L41.3,208.5z"/>
<g>
	<path class="st2" d="M311.8,113.5c-0.6,0-1.2,0-1.9,0l-48-0.4l0-0.8l48,0.4c3.3,0,6.7,0.1,10-0.7l0.2,0.8
		C317.4,113.4,314.6,113.5,311.8,113.5z"/>
	<path class="st1" d="M324,80.6c-8.9-15-26.4-15.7-26.4-15.7s-17.1-2.2-28.1,20.6c-10.2,21.3-24.3,41.8-2.3,46.8l4-12.4l2.5,13.3
		c3.1,0.2,6.3,0.3,9.4,0.2c23.6-0.8,46.1,0.2,45.4-8.3C327.5,113.9,332.5,95,324,80.6z"/>
	<circle class="st3" cx="299.3" cy="100.3" r="22.9"/>
	<path class="st3" d="M289.9,115.2c0,0,10.4,24.3-3.5,29.2l13.9,45.8l23.6-1.4l6.2-15.3l-1.4-22.9l-2.1-15.3c0,0-14.6,3.5-13.2-22.2
		L289.9,115.2z"/>
	<path class="st3" d="M284.4,143.7c0,0-22.9-2.1-20.8,14.6s4.2,20.1,4.2,20.1l2.1,25l-12.5,7.6h-11.8c0,0-36.1,8.3-18,17.4
		c18,9,24.3-6.9,24.3-6.9s33.3,0,35.4-5.6C289.2,210.3,284.4,143.7,284.4,143.7z"/>
	<path class="st3" d="M360.8,238h10.4c-1.6-5.2-5.6-18.6-5.6-23.5c0-6.2-8.3-27.1-8.3-27.1l-4.2-23.6c0,0,0-1.4-1.4-18
		c-1.4-16.7-22.9-9-22.9-9l7.6,40.3l5.6,22.9l18.7,37.5C360.7,237.4,360.7,237.6,360.8,238z"/>
	<path class="st4" d="M287.9,142.9h-5.6l-0.7,29.2c0,0-9,12.5,2.1,23.6l2.8,18l50.7-2.1l3.5-18.7c0,0,6.9-15.3-2.8-29.2l-9-28.5
		h-4.9c0,0,11.3,41.5-12.5,42.3C292,178.3,287.9,142.9,287.9,142.9z"/>
	<path class="st1" d="M301,237.9c0.1,0,0.2,0,0.3,0h49.1c-3.3-9.7-6.5-16.2-9.4-18.1c-0.3-0.2-0.7-0.4-1-0.5l-0.6-1.3l-0.4-0.8
		l-3.4-7.6l-1.3-2.8l-45.1,1.4l-1,3.4l-0.8,2.5l-0.7,2.4l-1.7,5.6c0,0,0,0,0,0c0,0-0.1,0.1-0.1,0.3c-0.1,0.2-0.2,0.5-0.3,0.9
		c-0.8,2.2-2.6,7.3-5.1,14.6c0.1,0,0.2,0,0.3,0H301z"/>
	<path class="st5" d="M339.2,201.3l-54.8,2.1c0,0-2.5,18.7,0,18.7c0.7,0,57.6,4.9,56.9-3.5S339.2,201.3,339.2,201.3z"/>
	<circle class="st1" cx="299.7" cy="65" r="12.7"/>
	<path class="st1" d="M285.7,61.6c0-6.5,4.9-11.9,11.4-12.6c-7-0.7-13.2,4.3-14,11.3c-0.7,7,4.3,13.2,11.3,14c0.9,0.1,1.8,0.1,2.7,0
		C290.6,73.6,285.7,68.1,285.7,61.6z"/>
	<polygon class="st1" points="320,79.2 302.7,70.1 278.8,73.8 273.8,95.7 286.1,95.2 289.6,87.2 289.6,95.1 295.3,94.8 298.6,82 
		300.6,95.7 320.9,95.3 	"/>
</g>
<g>
	<g>
		<polygon class="st1" points="118.3,88 96.4,88 96.4,66.2 111.2,66.2 111.2,66.7 96.9,66.7 96.9,87.5 117.7,87.5 117.7,77.1 
			118.3,77.1 		"/>
		<path class="st4" d="M107.2,82.3c-0.5-1.5-6.8-6.6-3-7.4l3.2,4.2l14.6-14.6l1.5,1.5L107.2,82.3z"/>
	</g>
	<g>
		<rect x="139.7" y="73.5" class="st4" width="57.9" height="1.2"/>
		<rect x="139.7" y="77.8" class="st4" width="22.7" height="1.2"/>
	</g>
</g>
<g>
	<g>
		<polygon class="st1" points="118.3,126.7 96.4,126.7 96.4,104.9 111.2,104.9 111.2,105.4 96.9,105.4 96.9,126.2 117.7,126.2 
			117.7,115.8 118.3,115.8 		"/>
		<path class="st4" d="M107.2,121c-0.5-1.5-6.8-6.6-3-7.4l3.2,4.2l14.6-14.6l1.5,1.5L107.2,121z"/>
	</g>
	<g>
		<rect x="139.7" y="112.2" class="st4" width="57.9" height="1.2"/>
		<rect x="139.7" y="116.5" class="st4" width="22.7" height="1.2"/>
	</g>
</g>
<g>
	<g>
		<polygon class="st1" points="118.3,165.4 96.4,165.4 96.4,143.5 111.2,143.5 111.2,144 96.9,144 96.9,164.8 117.7,164.8 
			117.7,154.4 118.3,154.4 		"/>
		<path class="st4" d="M107.2,159.7c-0.5-1.5-6.8-6.6-3-7.4l3.2,4.2l14.6-14.6l1.5,1.5L107.2,159.7z"/>
	</g>
	<g>
		<rect x="139.7" y="150.9" class="st4" width="57.9" height="1.2"/>
		<rect x="139.7" y="155.2" class="st4" width="22.7" height="1.2"/>
	</g>
</g>
</svg>
