<?xml version="1.0" encoding="utf-8"?>
<!-- Generator: Adobe Illustrator 24.1.0, SVG Export Plug-In . SVG Version: 6.00 Build 0)  -->
<svg version="1.1" id="ffb55883-6880-4c99-84fd-4a8eccb5f463"
	 xmlns="http://www.w3.org/2000/svg" xmlns:xlink="http://www.w3.org/1999/xlink" x="0px" y="0px" viewBox="0 0 443.8 226.9"
	 style="enable-background:new 0 0 443.8 226.9;" xml:space="preserve">
<style type="text/css">
	.st0{fill:#F7F7F7;}
	.st1{fill:#12123A;}
	.st2{fill:#F24900;}
	.st3{opacity:0.3;enable-background:new    ;}
	.st4{fill:#FFC1C7;}
	.st5{opacity:0.1;enable-background:new    ;}
</style>
<rect x="14.4" y="29.4" class="st0" width="395" height="197.5"/>
<path class="st1" d="M443.8,199.5h-397V0h397V199.5z M48.7,197.5h393V2h-393L48.7,197.5z"/>
<path class="st2" d="M290.9,97.6c0,6-4.9,10.9-11,10.9c-6,0-10.9-4.9-10.9-10.9s4.9-10.9,10.9-10.9
	C285.9,86.6,290.9,91.5,290.9,97.6L290.9,97.6z"/>
<path class="st3" d="M290.9,97.6c0,6-4.9,10.9-11,10.9c-6,0-10.9-4.9-10.9-10.9s4.9-10.9,10.9-10.9
	C285.9,86.6,290.9,91.5,290.9,97.6L290.9,97.6z"/>
<path class="st2" d="M310.7,42.4c0,3.6-0.7,7.1-2.2,10.4c-0.6,1.4-1.4,2.8-2.2,4.1c-1.8,2.6-3.9,5-6.4,6.9c-0.4,0.3-0.9,0.7-1.5,1.2
	c-0.7,0.6-1.6,1.2-2.6,1.8c-1.8,1.2-3.5,2.4-5,3.7c-0.9,0.7-1.8,1.6-2.4,2.6c-0.8,1.4-1.3,4.3-1.3,8.4v0.7h-18.3V79
	c0-2.5,0.1-4.5,0.2-6.4c0.1-1.6,0.3-3.3,0.5-4.9c0.2-1.4,0.6-2.8,1.3-4.1c1.2-2,4.1-4.7,8.8-8.3c0.2-0.1,0.4-0.3,0.6-0.5
	c0.2-0.1,0.4-0.3,0.6-0.4c1.6-1.2,3.2-2.5,4.5-4c0.4-0.5,0.7-0.9,1.1-1.5l0.1-0.1c1.1-1.9,1.6-4,1.5-6.2c0-0.5,0-1.1-0.1-1.6
	c-0.2-2.1-1.2-4.1-2.8-5.5c-1.7-1.6-3.9-2.4-6.2-2.6c-0.3,0-0.5,0-0.8,0c-1.1,0-2.2,0.1-3.2,0.4c-2,0.5-3.7,1.6-5,3.1
	c-0.7,0.8-1.3,1.7-1.8,2.7c-1.6,3.7-2.6,7.6-3.1,11.6l-0.1,0.7l-17.2-4.6v-7.7c0.1-0.3,0.1-0.6,0.3-0.9c1.1-3.8,2.8-7.4,5.2-10.6
	c1-1.4,2.1-2.6,3.3-3.8c0.3-0.3,0.6-0.6,0.9-0.9c2.1-1.8,4.3-3.3,6.9-4.5l0.2-0.1c4.7-2.2,9.8-3.3,14.9-3.2c0.5,0,1.2,0,1.8,0.1
	c5.2,0.1,10.2,1.4,14.7,3.7c2,1.1,3.9,2.4,5.7,3.9c4.9,4,8.1,9.8,8.8,16.1C310.6,40.1,310.7,41.3,310.7,42.4z"/>
<path class="st3" d="M310.7,42.4c0,3.6-0.7,7.1-2.2,10.4c-0.6,1.4-1.4,2.8-2.2,4.1c-1.8,2.6-3.9,5-6.4,6.9c-0.4,0.3-0.9,0.7-1.5,1.2
	c-0.7,0.6-1.6,1.2-2.6,1.8c-1.8,1.2-3.5,2.4-5,3.7c-0.9,0.7-1.8,1.6-2.4,2.6c-0.8,1.4-1.3,4.3-1.3,8.4v0.7h-18.3V79
	c0-2.5,0.1-4.5,0.2-6.4c0.1-1.6,0.3-3.3,0.5-4.9c0.2-1.4,0.6-2.8,1.3-4.1c1.2-2,4.1-4.7,8.8-8.3c0.2-0.1,0.4-0.3,0.6-0.5
	c0.2-0.1,0.4-0.3,0.6-0.4c1.6-1.2,3.2-2.5,4.5-4c0.4-0.5,0.7-0.9,1.1-1.5l0.1-0.1c1.1-1.9,1.6-4,1.5-6.2c0-0.5,0-1.1-0.1-1.6
	c-0.2-2.1-1.2-4.1-2.8-5.5c-1.7-1.6-3.9-2.4-6.2-2.6c-0.3,0-0.5,0-0.8,0c-1.1,0-2.2,0.1-3.2,0.4c-2,0.5-3.7,1.6-5,3.1
	c-0.7,0.8-1.3,1.7-1.8,2.7c-1.6,3.7-2.6,7.6-3.1,11.6l-0.1,0.7l-17.2-4.6v-7.7c0.1-0.3,0.1-0.6,0.3-0.9c1.1-3.8,2.8-7.4,5.2-10.6
	c1-1.4,2.1-2.6,3.3-3.8c0.3-0.3,0.6-0.6,0.9-0.9c2.1-1.8,4.3-3.3,6.9-4.5l0.2-0.1c4.7-2.2,9.8-3.3,14.9-3.2c0.5,0,1.2,0,1.8,0.1
	c5.2,0.1,10.2,1.4,14.7,3.7c2,1.1,3.9,2.4,5.7,3.9c4.9,4,8.1,9.8,8.8,16.1C310.6,40.1,310.7,41.3,310.7,42.4z"/>
<path class="st2" d="M283.4,97.6c0,6-4.9,10.9-11,10.9c-6,0-10.9-4.9-10.9-10.9s4.9-10.9,10.9-10.9
	C278.5,86.6,283.4,91.5,283.4,97.6L283.4,97.6z"/>
<path class="st2" d="M303.2,42.4c0,3.6-0.7,7.1-2.2,10.4c-0.6,1.4-1.4,2.8-2.2,4.1c-1.8,2.6-3.9,5-6.4,6.9c-0.4,0.3-0.9,0.7-1.5,1.2
	c-0.7,0.6-1.6,1.2-2.6,1.8c-1.8,1.2-3.5,2.4-5,3.7c-0.9,0.7-1.8,1.6-2.4,2.6c-0.8,1.4-1.3,4.3-1.3,8.4v0.7h-18.3V79
	c0-2.5,0.1-4.5,0.2-6.4c0.1-1.6,0.3-3.3,0.5-4.9c0.2-1.4,0.6-2.8,1.3-4.1c1.2-2,4.1-4.7,8.8-8.3c0.2-0.1,0.4-0.3,0.6-0.5
	c0.2-0.1,0.4-0.3,0.6-0.4c1.6-1.2,3.2-2.5,4.5-4c0.4-0.5,0.7-0.9,1.1-1.5l0.1-0.1c1.1-1.9,1.6-4,1.5-6.2c0-0.5,0-1.1-0.1-1.6
	c-0.2-2.1-1.2-4.1-2.8-5.5c-1.7-1.6-3.9-2.4-6.2-2.6c-0.3,0-0.5,0-0.8,0c-1.1,0-2.2,0.1-3.2,0.4c-2,0.5-3.7,1.6-5,3.1
	c-0.7,0.8-1.3,1.7-1.8,2.7c-1.2,2.4-2,5.7-2.4,9.6l-0.1,0.7l-19.4-2.9l0.1-0.7c0.3-2.6,0.9-5.2,1.6-7.6c1.1-3.8,2.8-7.4,5.2-10.6
	c1-1.4,2.1-2.6,3.3-3.8c0.3-0.3,0.6-0.6,0.9-0.9c2.1-1.8,4.3-3.3,6.9-4.5l0.2-0.1c4.7-2.2,9.8-3.3,14.9-3.2c0.5,0,1.2,0,1.8,0.1
	c5.2,0.1,10.2,1.4,14.7,3.7c2,1.1,3.9,2.4,5.7,3.9c4.9,4,8.1,9.8,8.8,16.1C303.2,40.1,303.2,41.3,303.2,42.4z"/>
<path class="st1" d="M217.2,112.7h3.6c0,0,3.3,25.6,0.9,28c-2.4,2.4-9,3.9-9.9,0s0-18.3,0-18.3L217.2,112.7z"/>
<ellipse class="st1" cx="193.6" cy="90.4" rx="21.9" ry="25.7"/>
<path class="st4" d="M188.6,95.2c0,0,1.2,9.9-2.4,12c-3.6,2.1,4.2,14.1,4.2,14.1l9.3,2.4l6.3-8.7l-1.2-9c0,0-7.2-7.2-3.9-13.8
	L188.6,95.2z"/>
<path class="st5" d="M188.6,95.2c0,0,1.2,9.9-2.4,12c-3.6,2.1,4.2,14.1,4.2,14.1l9.3,2.4l6.3-8.7l-1.2-9c0,0-7.2-7.2-3.9-13.8
	L188.6,95.2z"/>
<path class="st4" d="M189.1,227.1l6.5-27.4l-20.4,3.3c0,0-1.4,12.7-1.6,24.1L189.1,227.1L189.1,227.1z"/>
<path class="st4" d="M219,227.1c-0.3-12.9,0.8-33.8,0.8-33.8l-16.2,4.2c0,0,0.2,18.1,1.1,29.6H219z"/>
<circle class="st4" cx="193.6" cy="87.9" r="11.4"/>
<path class="st1" d="M232.5,201.7c0,0-8.1,5.4-11.4,1.5c-3.3-3.9-43.9,2.4-49,1.2s2.7-20.4,2.7-30.4c0-7.4,2.7-18.7,4-23.9
	c0.5-1.8,0.8-2.8,0.8-2.8s3.1-8.8,2.5-12.4c0-0.3-0.1-0.5-0.2-0.8c0-0.1-0.1-0.2-0.2-0.3c-1.4-1.9-5.6-15.9-7.2-21.9
	c-0.3-0.9-0.5-1.8-0.6-2.7c0-0.9,11.1-3.6,13.9-3.7c2.8-0.1,3.5,3.7,3.5,3.7c0.9,0.6,5.1,11.1,5.1,11.1l3.9-9.9c0,0-0.3-2.1-0.6-2.1
	s4.4-2.8,4.4-2.8s4.9,3.4,7.6,2.8c2.7-0.6,9,4.8,9,4.8s-11.1,28-6.6,34S232.5,201.7,232.5,201.7z"/>
<path class="st5" d="M181.7,133.7c-1.4-1.9-5.6-15.9-7.2-21.9h1.5c0,0,3.7,14.3,5.9,22.2C181.8,133.9,181.8,133.8,181.7,133.7z"/>
<path class="st5" d="M201.6,153.6c0,0-4.2,0.3-19.5-2.7c-1.1-0.2-2.1-0.5-3.2-0.8c0.5-1.8,0.8-2.8,0.8-2.8s3.1-8.8,2.5-12.4
	c0.7,2.5,1.3,4.2,1.4,4.3c0.6,0.3,19.8,3.6,22.5,4.8C208.8,145.1,201.6,153.6,201.6,153.6z"/>
<path class="st5" d="M207,114.2c0,0,8.3-1,8.8,0.3s2.6,14.3,3.5,16s1.2,12-2.4,12.3c-3.6,0.3-8.4-3.3-7.5-6.3S207,114.2,207,114.2z"
	/>
<path class="st4" d="M202.8,141.8c0,0,12.6,1.5,14.7,0s10.8-1.5,9,2.7s-17.4,4.5-17.4,4.5h-9L202.8,141.8z"/>
<path class="st1" d="M176,109.7h-2.1c0,0-4.2,0.9-3.6,14.1c0.6,13.2-3.6,21.9,11.7,25s19.5,2.7,19.5,2.7s7.2-8.4,4.5-9.6
	c-2.7-1.2-21.9-4.5-22.5-4.8S176,109.7,176,109.7z"/>
<path class="st4" d="M215.5,115.6c0,0-5.3-19.8-9.5-19.8s-9,0.9-5.4,4.8s8.1,8.1,8.4,10.2c0.3,2.1,1.5,5.1,1.5,5.1L215.5,115.6z"/>
<path class="st1" d="M208.2,114.2c0,0,8.3-1,8.8,0.3s2.6,14.3,3.5,16s1.2,12-2.4,12.3c-3.6,0.3-8.4-3.3-7.5-6.3
	S208.2,114.2,208.2,114.2z"/>
<circle class="st1" cx="190.6" cy="77.1" r="10.8"/>
</svg>
