<?xml version="1.0" encoding="utf-8"?>
<!-- Generator: Adobe Illustrator 24.1.0, SVG Export Plug-In . SVG Version: 6.00 Build 0)  -->
<svg version="1.1" id="_x37_5ec1790-e4b7-40a0-8812-a9d39b2e2dcc"
	 xmlns="http://www.w3.org/2000/svg" xmlns:xlink="http://www.w3.org/1999/xlink" x="0px" y="0px" viewBox="0 0 467 250.6"
	 style="enable-background:new 0 0 467 250.6;" xml:space="preserve">
<style type="text/css">
	.st0{fill:#F7F7F7;}
	.st1{fill:#12123A;}
	.st2{opacity:0.5;}
	.st3{fill:#F24900;}
	.st4{opacity:0.2;fill:#FFFFFF;enable-background:new    ;}
	.st5{opacity:6.000000e-02;enable-background:new    ;}
	.st6{fill:#A1616A;}
	.st7{fill:#FBBEBE;}
	.st8{opacity:3.000000e-02;enable-background:new    ;}
	.st9{fill:#464353;}
	.st10{opacity:6.000000e-02;}
</style>
<rect x="21.5" y="42.9" class="st0" width="395" height="197.5"/>
<path class="st1" d="M450.9,213h-397V13.5h397V213z M55.8,211h393V15.5h-393L55.8,211z"/>
<g class="st2">
	<polygon class="st3" points="203.7,140 194.7,140.2 193.2,142.2 193.2,149.2 195,150.5 203.7,150.5 205.5,148.5 205.5,141.9 	"/>
	<path class="st4" d="M203.5,141.1c0,0-8.3,1.3-9,0l0.2-0.9l8.8-0.2V141.1z"/>
	<path class="st3" d="M204.4,160.3l1.5,1.5v7l-1.5,1.5c0,0-5.3,1.8-8.8,0.4l-1.6-1.6v-7l1.5-1.7L204.4,160.3z"/>
	<path class="st4" d="M204,161.9c0,0-6.4,1.5-8.6,0v-1.7h9L204,161.9z"/>
	<path class="st3" d="M200.9,150.5v9.9c-0.1,0.8-0.8,1.5-1.6,1.4l0,0c-0.8,0-1.5-0.6-1.6-1.4v-9.9c0-0.8,0.8-1.5,1.8-1.4l0,0
		C200.3,149.1,200.9,149.7,200.9,150.5z"/>
	<polygon class="st3" points="218.1,140.3 209.1,140.5 207.6,142.5 207.6,149.5 209.5,150.8 218.1,150.8 220,148.8 220,142.2 	"/>
	<path class="st4" d="M217.9,141.4c0,0-8.3,1.3-9,0l0.2-0.9l8.8-0.2V141.4z"/>
	<path class="st3" d="M218.8,160.5l1.5,1.5v7l-1.5,1.5c0,0-5.3,1.8-8.8,0.4l-1.7-1.6v-7l1.5-1.7H218.8z"/>
	<path class="st4" d="M218.5,162.2c0,0-6.4,1.5-8.6,0v-1.6h9L218.5,162.2z"/>
	<path class="st3" d="M215.3,150.7v9.9c-0.1,0.8-0.8,1.5-1.6,1.4l0,0c-0.8,0-1.5-0.6-1.6-1.4v-9.9c0-0.8,0.8-1.5,1.8-1.4l0,0
		C214.7,149.4,215.3,150,215.3,150.7z"/>
	<polygon class="st3" points="236.5,145.6 229.1,145.8 227.8,147.4 227.8,153.2 229.3,154.2 236.5,154.2 238,152.6 238,147.1 	"/>
	<path class="st4" d="M236.3,146.5c0,0-6.8,1.1-7.4,0l0.2-0.8l7.3-0.2L236.3,146.5z"/>
	<path class="st3" d="M237.1,162.3l1.2,1.2v5.8l-1.2,1.2c0,0-4.4,1.5-7.3,0.3l-1.4-1.4v-5.8l1.2-1.4L237.1,162.3L237.1,162.3z"/>
	<path class="st4" d="M236.8,163.6c0,0-5.3,1.2-7.1,0v-1.4h7.4L236.8,163.6z"/>
	<path class="st3" d="M234.2,154.2v8.2c0,0.7-0.6,1.2-1.3,1.2l0,0c-0.7,0-1.2-0.5-1.3-1.2v-8.2c0.1-0.7,0.6-1.2,1.3-1.2
		c0,0,0.1,0,0.1,0l0,0C233.7,153.1,234.2,153.6,234.2,154.2z"/>
	<polygon class="st3" points="248.4,145.9 240.9,146 239.7,147.7 239.7,153.4 241.3,154.5 248.4,154.5 249.9,152.8 249.9,147.4 	"/>
	<path class="st4" d="M248.2,146.8c0,0-6.8,1.1-7.4,0l0.2-0.8l7.3-0.2L248.2,146.8z"/>
	<path class="st3" d="M249,162.5l1.2,1.2v5.8l-1.2,1.2c0,0-4.4,1.5-7.3,0.3l-1.3-1.3v-5.8l1.2-1.4H249L249,162.5z"/>
	<path class="st4" d="M248.7,163.9c0,0-5.3,1.2-7.1,0v-1.4h7.4L248.7,163.9z"/>
	<path class="st3" d="M246.1,154.4v8.2c0,0.7-0.6,1.2-1.3,1.2l0,0c-0.7,0-1.2-0.5-1.3-1.2v-8.2c0-0.7,0.7-1.2,1.4-1.2l0,0
		C245.6,153.3,246,153.8,246.1,154.4z"/>
</g>
<path class="st5" d="M294.4,113.2c-1.1,0.7-1.4,2.1-1.6,3.4c-0.6,5.4,1.7,10.7,1.5,16.2c-0.1,4.3-1.7,8.5-3.3,12.5
	c-2.7,6.9-4.1,14.3-4.7,21.6c-0.5,7.4-1.3,15-5.3,21.2c-0.9,1.4-1.9,2.7-2.8,4.1c-0.9,1.5-1.6,3.1-2.5,4.6
	c-2.4,4.6-5.5,8.7-9.2,12.3c-1.1,1.1-2.2,2.1-3.6,2.7c-1.8,0.8-3.8,0.8-5.6,0.1c-1.8-0.8-3.4-2.5-3.5-4.5c-0.1-1.8,1-3.4,2.1-4.8
	c3.6-4.8,7.8-9.2,12.4-13.1c0.8-0.7,1.7-1.4,2.2-2.5c0.5-1.2,0.3-2.5,0.4-3.7c0.1-2,0.9-3.9,1.3-5.9c1.9-7.9-1.5-16.6,1.3-24.3
	c0.6-1.7,1.5-3.3,1.7-5.1c0.2-1.3-0.2-2.7-0.9-3.6c-0.7-0.9-1.2-1.9-1.2-3.1c0-0.2,0-0.5,0-0.7c0.3-3.5,0.6-7.1,0.5-10.6
	c-0.2-3.6-0.9-7.1-2.5-10.2c-0.8-1.6-1.9-3.2-2.5-4.9c-0.8-2.9-0.1-5.9,1.2-8.6c1-2.1,2.3-4.1,4.1-5.5c3.4-2.7,8.5-3,12.1-0.8
	c2.7,1.6,4.6,4.4,6.1,7.2C293.3,109.1,294.4,110.8,294.4,113.2z"/>
<path class="st6" d="M285.5,91.7c-0.5,1.4-1,2.8-1.5,4.2c-0.4,0.9-0.7,1.8-1,2.7c-1.6,4.2-3.4,8.4-6.2,11.9c0.4-0.5-3.6-3.2-6.5-5
	c-1.4-0.9-2.6-1.6-2.9-1.7c-0.7-0.3-1.4-0.6-2.1-0.8c-1.1-0.4-2.2-0.7-3.4-1.1c-2.6-0.9-0.8-2.3,0.3-3.9c3.6-4.9,4.3-11.7,8.4-16.2
	c1.5,2.9,3.9,5.2,6.8,6.6c0.1,0,0.1,0.1,0.2,0.1c2.5,1.1,5.1,1.6,7.7,2.6c0.1,0.1,0.3,0.1,0.4,0.3C285.5,91.5,285.5,91.6,285.5,91.7
	z"/>
<path class="st6" d="M278.4,191.4c-2.4,3.4-2.9,7.8-1.3,11.6c0.2,0.5,0.5,1,0.9,1.4c0.5,0.4,1.1,0.7,1.7,0.8
	c5.4,1.5,11.1,1.2,16.5,0.3c1.9-0.3,3.7-0.8,5.4-1.4c2.7-1,5.1-2.7,7.5-4.3l5.1-3.5c1.6-1.1,3.3-2.3,5.1-3c2.8-1.2,5.9-1.6,8.9-1.6
	c2.6,0,5.2,0.2,7.8,0.8c1.7,0.3,3.8,0.7,5-0.6c0.7-0.7,0.9-1.8,1-2.7c0.5-3.8,0.5-7.7,0-11.5c0-0.3-0.1-0.6-0.3-0.9
	c-0.2-0.2-0.4-0.3-0.7-0.3c-2.4-0.5-4.8,0.6-7.1,1.3c-4.8,1.6-10,1.8-14.9,3.1c-5.1,1.4-10,4-15.3,4.5c-2.5,0.2-5.1,0-7.6,0.1
	c-2.3,0.1-4.6,0.9-6.9,1C285.1,186.7,281.2,187.5,278.4,191.4z"/>
<path class="st5" d="M278.4,191.4c-2.4,3.4-2.9,7.8-1.3,11.6c0.2,0.5,0.5,1,0.9,1.4c0.5,0.4,1.1,0.7,1.7,0.8
	c5.4,1.5,11.1,1.2,16.5,0.3c1.9-0.3,3.7-0.8,5.4-1.4c2.7-1,5.1-2.7,7.5-4.3l5.1-3.5c1.6-1.1,3.3-2.3,5.1-3c2.8-1.2,5.9-1.6,8.9-1.6
	c2.6,0,5.2,0.2,7.8,0.8c1.7,0.3,3.8,0.7,5-0.6c0.7-0.7,0.9-1.8,1-2.7c0.5-3.8,0.5-7.7,0-11.5c0-0.3-0.1-0.6-0.3-0.9
	c-0.2-0.2-0.4-0.3-0.7-0.3c-2.4-0.5-4.8,0.6-7.1,1.3c-4.8,1.6-10,1.8-14.9,3.1c-5.1,1.4-10,4-15.3,4.5c-2.5,0.2-5.1,0-7.6,0.1
	c-2.3,0.1-4.6,0.9-6.9,1C285.1,186.7,281.2,187.5,278.4,191.4z"/>
<path class="st1" d="M282.8,185.8c-0.1,0.6-0.2,1.2-0.1,1.8c0.2,0.6,0.6,1.1,1.1,1.5c4.6,4.1,11.1,5,17.2,5.6c1.7,0.2,3.3,0.4,5,0.1
	c1.5-0.3,2.9-0.9,4.3-1.6c3-1.4,6-2.8,8.5-4.9c2.5-2,4.5-4.6,7.1-6.5c2.9-2.2,6.5-3.4,9.2-5.9c1.9-1.8,3.2-4.2,3.6-6.8
	c0.3-1.8,0.2-3.6,0-5.4c-0.2-2-0.6-4.1-1.5-6c-1.1-2.1-3-3.7-5-5c-4.2-2.7-9.2-4.5-14.3-4.4c-7,0.1-13.5,4.1-18.5,8.7
	c-5.3,4.8-9.6,10.7-12.7,17.2C284.9,177.9,283.6,181.8,282.8,185.8z"/>
<path class="st6" d="M294.4,113.2c-1.1,0.7-1.4,2.1-1.6,3.4c-0.6,5.4,1.7,10.7,1.5,16.2c-0.1,4.3-1.7,8.5-3.3,12.5
	c-2.7,6.9-4.1,14.3-4.7,21.6c-0.5,7.4-1.3,15-5.3,21.2c-0.9,1.4-1.9,2.7-2.8,4.1c-0.9,1.5-1.6,3.1-2.5,4.6
	c-2.4,4.6-5.5,8.7-9.2,12.3c-1.1,1.1-2.2,2.1-3.6,2.7c-1.8,0.8-3.8,0.8-5.6,0.1c-1.8-0.8-3.4-2.5-3.5-4.5c-0.1-1.8,1-3.4,2.1-4.8
	c3.6-4.8,7.8-9.2,12.4-13.1c0.8-0.7,1.7-1.4,2.2-2.5c0.5-1.2,0.3-2.5,0.4-3.7c0.1-2,0.9-3.9,1.3-5.9c1.9-7.9-1.5-16.6,1.3-24.3
	c0.6-1.7,1.5-3.3,1.7-5.1c0.2-1.3-0.2-2.7-0.9-3.6c-0.7-0.9-1.2-1.9-1.2-3.1c0-0.2,0-0.5,0-0.7c0.3-3.5,0.6-7.1,0.5-10.6
	c-0.2-3.6-0.9-7.1-2.5-10.2c-0.8-1.6-1.9-3.2-2.5-4.9c-0.8-2.9-0.1-5.9,1.2-8.6c1-2.1,2.3-4.1,4.1-5.5c3.4-2.7,8.5-3,12.1-0.8
	c2.7,1.6,4.6,4.4,6.1,7.2C293.3,109.1,294.4,110.8,294.4,113.2z"/>
<ellipse class="st6" cx="279.5" cy="115.3" rx="10.2" ry="16"/>
<path class="st7" d="M253.6,198.8c0.6,0.9,0.8,1.9,0.5,3c1,0.7,2.1,1,3.3,1c1.2-0.1,2.3-0.3,3.4-0.8c0.9-0.4,1.8-0.8,2.6-1.4
	c1.4-1.1,2.4-2.5,3.2-4.1c0.5-0.9,0.8-1.9,0.3-2.7c-0.2-0.3-0.5-0.5-0.8-0.6c-2.1-1.2-4.2-2.2-6.5-3.1c-0.6-0.3-1.3-0.4-1.9-0.4
	c-0.8,0.1-1.6,0.5-2.2,1c-1.5,1.2-2.7,2.6-3.5,4.3c-0.2,0.5-1,1.8-0.6,2.4c0.2,0.3,0.8,0.4,1.1,0.5
	C252.9,198.1,253.3,198.4,253.6,198.8z"/>
<path class="st8" d="M253.6,198.8c0.6,0.9,0.8,1.9,0.5,3c1,0.7,2.1,1,3.3,1c1.2-0.1,2.3-0.3,3.4-0.8c0.9-0.4,1.8-0.8,2.6-1.4
	c1.4-1.1,2.4-2.5,3.2-4.1c0.5-0.9,0.8-1.9,0.3-2.7c-0.2-0.3-0.5-0.5-0.8-0.6c-2.1-1.2-4.2-2.2-6.5-3.1c-0.6-0.3-1.3-0.4-1.9-0.4
	c-0.8,0.1-1.6,0.5-2.2,1c-1.5,1.2-2.7,2.6-3.5,4.3c-0.2,0.5-1,1.8-0.6,2.4c0.2,0.3,0.8,0.4,1.1,0.5
	C252.9,198.1,253.3,198.4,253.6,198.8z"/>
<path class="st1" d="M264.7,192.6c4.6,0.8,8.8,3,13.2,4.2c1.8,0.5,3.7,0.8,5.4,1.5s3.4,1.9,4.1,3.6c0.3,0.8,0.5,1.7,0.6,2.6
	c0.2,1.2,0.4,2.6-0.4,3.6c-0.8,1.1-2.2,1.3-3.6,1.5c-4.7,0.6-9.5,1.1-14.2,1.5c-1,0.1-1.9,0.2-2.9,0.4c-0.8,0.2-1.5,0.4-2.3,0.6
	c-1,0.2-2,0.4-3,0.5c-2.6,0.4-5.3,0.8-7.9,0.5c-1.2-0.1-2.5-0.5-3-1.6c-0.2-0.6-0.3-1.2-0.3-1.8c0-1.6,0-3.2,0-4.8
	c0-1.6,0.1-3.3,0.9-4.8c0.2-0.5,0.5-0.8,1-1c0.3-0.1,0.6-0.1,0.8-0.1c1.4,0.1,2.9,0.1,4.1,0.7c1,0.5,1.8,1.3,2.8,1.8
	c1.9,0.9,4.2,0.2,6.2,1.1c0.5-1.4,0.4-2.8,0-4.2c-0.4-1.4-0.8-2.8-0.9-4.3c0-0.3-0.1-0.6-0.2-0.9C265,192.8,265,192.5,264.7,192.6z"
	/>
<path class="st7" d="M112.5,146.7c-0.9-0.3-1.8,0.5-2.3,1.3c-2.1,3.4-2,7.8-0.2,11.4c0.4,0.9,1,1.8,1.7,2.5c0.9,0.9,2.1,1.5,3.2,2.2
	c3.1,1.8,5.7,4.3,7.8,7.3c1.3,1.9,2.3,4.1,3.9,5.9c3.7,4.4,9.7,6.5,13.3,11c0.9,1.1,1.6,2.3,2.7,3.1c2.1,1.5,5,0.9,6.4-1.2
	c0.5-0.7,0.8-1.5,0.8-2.4c1.4-2,2.5-4.3,3.6-6.5c1.6-3.4,2.9-6.9,4-10.5c0.4-1.3,0.8-2.5,1.3-3.8c1.3-3,3.3-5.8,4-9
	c0.3-1.3,0.4-2.6,0.8-3.9c0.4-1.1,1-2.1,1.9-3c2.8-2.7,4.3-6.7,6.5-9.9c0.9-1.3,1.9-2.6,2.5-4c0.6-1.5,0.8-3.2,0.3-4.6
	s-2-2.7-3.6-2.6c-0.7,0.1-1.4,0.3-2,0.6c-2.2,1-4.2,2.4-5.9,4.1c-0.8,0.7-1.5,1.5-2.2,2.3c-3.3,3.9-5.9,8.7-6.1,13.8
	c-0.1,1.8,0.1,3.7-1.1,5.1c-3.1,3.8-4.1,8.9-6.7,13c-1.2,1.9-2.6,3.8-4.7,4.7c-0.3,0.1-0.6,0.2-1,0.2c-0.8-0.1-1.3-1-1.6-1.7
	c-1.4-3-3-5.8-4.7-8.6c-0.7-1.1-1.5-2.2-2.6-2.8c-0.8-0.4-1.7-0.6-2.4-1.1c-1-0.7-1.5-1.9-2.1-3c-1.7-3.6-3.9-6.9-6.4-10
	c-1.2-1.4-2.7-2.8-4.5-2.6C115.2,144.2,114.1,146,112.5,146.7z"/>
<path class="st8" d="M112.5,146.7c-0.9-0.3-1.8,0.5-2.3,1.3c-2.1,3.4-2,7.8-0.2,11.4c0.4,0.9,1,1.8,1.7,2.5c0.9,0.9,2.1,1.5,3.2,2.2
	c3.1,1.8,5.7,4.3,7.8,7.3c1.3,1.9,2.3,4.1,3.9,5.9c3.7,4.4,9.7,6.5,13.3,11c0.9,1.1,1.6,2.3,2.7,3.1c2.1,1.5,5,0.9,6.4-1.2
	c0.5-0.7,0.8-1.5,0.8-2.4c1.4-2,2.5-4.3,3.6-6.5c1.6-3.4,2.9-6.9,4-10.5c0.4-1.3,0.8-2.5,1.3-3.8c1.3-3,3.3-5.8,4-9
	c0.3-1.3,0.4-2.6,0.8-3.9c0.4-1.1,1-2.1,1.9-3c2.8-2.7,4.3-6.7,6.5-9.9c0.9-1.3,1.9-2.6,2.5-4c0.6-1.5,0.8-3.2,0.3-4.6
	s-2-2.7-3.6-2.6c-0.7,0.1-1.4,0.3-2,0.6c-2.2,1-4.2,2.4-5.9,4.1c-0.8,0.7-1.5,1.5-2.2,2.3c-3.3,3.9-5.9,8.7-6.1,13.8
	c-0.1,1.8,0.1,3.7-1.1,5.1c-3.1,3.8-4.1,8.9-6.7,13c-1.2,1.9-2.6,3.8-4.7,4.7c-0.3,0.1-0.6,0.2-1,0.2c-0.8-0.1-1.3-1-1.6-1.7
	c-1.4-3-3-5.8-4.7-8.6c-0.7-1.1-1.5-2.2-2.6-2.8c-0.8-0.4-1.7-0.6-2.4-1.1c-1-0.7-1.5-1.9-2.1-3c-1.7-3.6-3.9-6.9-6.4-10
	c-1.2-1.4-2.7-2.8-4.5-2.6C115.2,144.2,114.1,146,112.5,146.7z"/>
<ellipse class="st7" cx="112.3" cy="127.4" rx="7.1" ry="6.4"/>
<circle class="st7" cx="119" cy="126.1" r="2.6"/>
<ellipse class="st7" cx="113.3" cy="124.8" rx="9.8" ry="2.6"/>
<path class="st7" d="M104.5,124.2c0.2,0.8,0.4,1.5,0.6,2.3c-0.8-0.8-1.5-1.8-2.1-2.8c-0.2-0.2-0.3-0.4-0.4-0.6
	c-0.9-2-1.5-4.1-1.5-6.3c0-7.6,6.2-13.8,13.8-13.8s13.8,6.2,13.8,13.8c0,6.2-4.2,11.7-10.2,13.4c0.4-1.4,1-2.7,1.1-4.1
	c0.1-0.5,0-0.9-0.2-1.4c-0.2-0.5-0.6-0.9-1-1.2c-1.5-1.2-3.5-1.7-5.5-1.7c-1.9,0.1-3.9,0.5-5.6,1.3c-0.6,0.2-1.2,0.6-1.9,0.8
	C105.2,124.1,104.9,124.2,104.5,124.2z"/>
<path class="st7" d="M139.6,154.5c-0.9,1.4-2.8,1.9-4.4,1.7c-3.1-0.2-5.9-1.9-8.3-3.9c-2.4-2-4.5-4.3-6.9-6.2
	c-4.6-3.6-9.7-5-15.5-5.1c1.1-0.9,0.7-3.2,0.8-4.6c0.2-3,0.4-6,0-8.9c0-0.3-0.1-0.6-0.1-0.9c0.1,0.1,0.2,0.2,0.3,0.3
	c3.5,3.4,8.5,4.7,13.2,3.4c-0.2,0.5-0.3,0.9-0.4,1.4c-0.3,2.1,0.2,4.2,0.8,6.2c0.3,1.2,0.7,2.5,1.7,3.3c0.6,0.5,1.5,0.7,2.2,0.9
	c1.5,0.5,3,1.3,4.2,2.4c0.9,0.8,1.6,1.6,2.5,2.3c0.9,0.5,1.8,1,2.7,1.4c2.3,1.1,4.5,2.4,6.6,4c0.4,0.2,0.7,0.6,0.9,1
	C140,153.7,139.9,154.1,139.6,154.5z"/>
<path class="st7" d="M155.5,180.6c-0.2,1.2-1.3,2.2-2.1,3.2c-2.2,2.6-4.3,5.2-6.8,7.6c-2.6,2.6-5.4,4.8-8.3,7.1l-3.7,2.9
	c-0.5,0.4-1,0.7-1.6,0.9c-0.7,0.2-1.4,0.1-2-0.2c-0.2-0.1-0.5-0.3-0.7-0.4c-0.8-0.6-1.3-1.4-1.9-2.2c-2.5-3.6-5-7.3-7.5-10.9
	c-0.9-1.3-1.8-2.6-2.6-4c-0.1-0.2-0.2-0.4-0.4-0.5c-0.8-1.2-1.6-2.4-2.4-3.6l-4.4-2.1l-0.6-0.3l-0.7-0.3c-0.9-0.4-1.8-0.9-2.6-1.5
	c-0.7-0.7-1.3-1.5-1.8-2.4c-0.9-1.6-1.7-3.3-2.3-5.1c-1.9-4.8-3.6-9.7-3.6-14.8c-0.1-4.5,1.3-9.2,4.3-12.5c0.4-0.5,0.9-0.9,1.3-1.3
	c0.6-0.5,1.2-0.8,1.9-0.7c0.8,0.1,1.5,0.2,2.2,0.3c2,0.4,3.9,0.8,5.8,1.2c1.8,0.5,3.5,0.9,5.3,0.6c0.3-0.1,0.6-0.1,0.8-0.2
	c0.2-0.1,0.5-0.1,0.7-0.2c0.1,0,0.3,0,0.4-0.1c0.9-0.1,1.8,0.3,2.7,0.7c1.6,0.7,3.3,1.5,4.6,2.7c0.7,0.8,1.3,1.8,2.1,2.5
	c1.1,1,2.5,1.5,3.7,2.2c0.2,0.1,0.5,0.3,0.7,0.5c0.5,0.4,0.9,0.8,1.3,1.3l0,0c1.6,1.9,2.6,4.5,4.4,6.4c1.5,1.5,2.7,3.2,3.7,5.1
	c0.2,0.3,0.3,0.6,0.5,0.9c0.3,0.5,0.5,1.1,0.8,1.6c0.1,0.1,0.1,0.3,0.2,0.4c0.4,0.8,0.6,1.6,0.9,2.5c0.6,2,1,4.2,2.4,5.9
	c0.9,1.1,2.3,1.9,3.4,2.9c0.7,0.6,1.3,1.4,1.6,2.2C155.5,179.5,155.6,180,155.5,180.6z"/>
<path class="st5" d="M148,164.4c-0.3,0.4-0.6,0.8-0.9,1.2c-0.1,0.1-0.1,0.1-0.2,0.2c-2.8,3.3-6.1,6.2-9.7,8.8
	c-2.2,1.5-4.6,2.9-6.9,4.3l-4.3,2.5c-1.8,1.1-3.6,2.1-5.6,2.7c-0.6,0.2-1.3,0.4-2,0.5c-0.1-0.2-0.2-0.4-0.4-0.5
	c-0.8-1.2-1.6-2.4-2.4-3.6l-4.4-2.1c2.5-1.5,4.6-3.5,6.4-5.8c2.7-3.3,4.8-7.1,6.8-10.9c0.4-0.6,0.6-1.3,0.8-1.9
	c0.3-1.1,0.1-2.3-0.3-3.4c-1.2-4-3.8-7.4-7.2-9.7c-2.4-1.6-5.2-2.6-7.9-3.6c-1.9-0.7-4-1.3-6-1c0.4-0.5,0.9-0.9,1.3-1.3
	c0.6-0.5,1.2-0.8,1.9-0.7c0.7,0.1,1.5,0.2,2.2,0.3c1.5,0.4,2.9,1,4.3,1.5c0.9,0.4,1.8,0.8,2.7,1.2c0.9,0.5,1.7,1.1,2.5,1.8
	c2.3,1.8,4.8,3.4,7.4,4.8c3,1.6,6.1,3,9.2,4.3c0.3,0.2,0.7,0.3,1.1,0.3c0.4,0,0.7-0.3,0.8-0.6c0-0.2,0-0.4-0.1-0.6
	c-0.5-1.1-1.8-1.6-2.9-2.2c-4.6-2.2-8.6-5.4-12.6-8.6c-0.1-0.1-0.2-0.2-0.2-0.3l0.7-0.2c4.5,3.2,9.2,6.1,14.1,8.5
	c0.3,0.1,0.5,0.3,0.8,0.4c0.2,0.1,0.4,0.2,0.6,0.3l0,0c1.3,0.6,2.7,1.3,3.7,2.4c0.6,0.8,1.2,1.6,1.6,2.5c1.1,2.1,2,4.2,2.8,6.5
	c0,0.1,0,0.1,0.1,0.1c0.1,0.4,0.3,0.6,0.5,0.9c0.1,0.1,0.2,0.2,0.3,0.2C146.9,164,147.6,164,148,164.4z"/>
<path class="st3" d="M122,141.3c4.5,3.2,9.2,6.1,14.1,8.5l0.8,0.4c1.5,0.7,3.1,1.5,4.2,2.7c0.6,0.8,1.2,1.6,1.6,2.5
	c1.1,2.1,2,4.2,2.8,6.5c0.2,0.5,0.4,1,0.8,1.3c0.5,0.3,1.2,0.2,1.6,0.6c-0.4,0.5-0.7,0.9-1.1,1.3c-2.8,3.3-6.1,6.2-9.7,8.8
	c-2.2,1.5-4.6,2.9-6.9,4.3l-4.3,2.5c-1.8,1.1-3.6,2.1-5.6,2.7c-0.8,0.2-1.5,0.4-2.3,0.6c-0.8-1.2-1.6-2.4-2.4-3.6l-5-2.3
	c2.7-1.5,5-3.7,7-6.1c2.7-3.3,4.8-7.1,6.8-10.9c0.4-0.6,0.6-1.3,0.8-1.9c0.3-1.1,0.1-2.3-0.3-3.4c-1.2-4-3.7-7.4-7.2-9.7
	c-2.4-1.6-5.2-2.6-7.9-3.6c-1.9-0.7-4-1.3-6-1c0.4-0.5,0.9-0.9,1.3-1.3c0.6-0.5,1.2-0.8,1.9-0.7c0.8,0.1,1.5,0.2,2.2,0.3
	c1.5,0.5,2.9,1,4.3,1.5c0.9,0.4,1.8,0.8,2.7,1.2c0.9,0.5,1.7,1.1,2.5,1.8c2.3,1.8,4.8,3.4,7.4,4.8c3,1.6,6.1,3,9.2,4.3
	c0.3,0.2,0.7,0.3,1.1,0.3s0.7-0.3,0.8-0.6c0-0.2,0-0.4-0.1-0.6c-0.5-1.1-1.8-1.7-2.9-2.2c-4.6-2.2-8.6-5.4-12.6-8.6
	c-0.1-0.1-0.2-0.2-0.2-0.3L122,141.3z"/>
<circle class="st3" cx="159.7" cy="139.1" r="16.9"/>
<path class="st1" d="M176.6,206.3c3.2-1,6.4-2,9.2-3.8c1.9-1.3,3.6-2.9,5.4-4.4c1.3-1.1,2.7-2.2,3.9-3.5c1.1-1.2,2.1-2.4,3.1-3.7
	c2.2-2.8,4.4-5.6,6.7-8.3c1.2-1.5,2.5-2.9,4.3-3.7c3.1-1.4,6.7-0.5,9.9,0.5c4.8,1.5,9.7,3,14.2,5.3c2.6,1.3,5.1,2.7,7.7,4
	c4.8,2.2,9.8,3.8,14.9,5.3c0.4,0.2,0.8,0.2,1.2,0.1c0.3-0.1,0.5-0.3,0.7-0.6c0.6-0.8,1.2-1.7,1.6-2.7c0.2-0.2,0.1-0.5-0.1-0.7
	c-2.2-2.1-5-3.4-7.6-4.9c-2.1-1.2-4.1-2.5-6.1-3.9c-1.9-1.3-3.8-2.6-5.4-4.2c-0.8-0.8-1.5-1.8-2.4-2.5c-0.8-0.6-1.6-1.2-2.5-1.7
	c-3.9-2.5-7.5-5.2-11-8.1c-2.6-2.3-4.8-5.1-7.6-7.2c-1.7-1.2-3.7-2.4-5.8-2.2c-2.6,0.3-4.5,2.4-6.2,4.3c-6,6.2-13.6,10.7-20.3,16.2
	c-5.5,4.5-10.6,9.8-17.3,12.2c0.3,1,0.4,2,0.7,3c0.4,1.4,0.8,2.7,1.4,4c0.6,1.2,1.2,2.3,1.9,3.3l2.7,4.4c0.5,0.9,1.1,1.8,1.9,2.5
	C175.8,205.6,176.6,205.8,176.6,206.3z"/>
<path class="st7" d="M250.3,201.2c0.6,0.9,0.8,1.9,0.5,3c1,0.7,2.1,1,3.3,1c1.2-0.1,2.3-0.3,3.4-0.8c0.9-0.4,1.8-0.8,2.6-1.4
	c1.4-1.1,2.4-2.5,3.2-4.1c0.5-0.9,0.8-1.9,0.3-2.7c-0.2-0.3-0.5-0.5-0.8-0.6c-2.1-1.2-4.2-2.2-6.5-3.1c-0.6-0.3-1.3-0.4-1.9-0.4
	c-0.8,0.1-1.6,0.5-2.2,1c-1.5,1.2-2.7,2.6-3.5,4.3c-0.2,0.5-1,1.8-0.6,2.4c0.2,0.3,0.8,0.4,1.1,0.5
	C249.6,200.5,250,200.8,250.3,201.2z"/>
<path class="st1" d="M262.6,194.9c4.6,0.9,8.8,3,13.2,4.2c1.8,0.5,3.7,0.8,5.4,1.5s3.4,1.9,4.1,3.6c0.3,0.8,0.5,1.7,0.6,2.6
	c0.2,1.2,0.4,2.6-0.4,3.6c-0.8,1.1-2.2,1.3-3.6,1.5c-4.7,0.6-9.5,1.1-14.2,1.5c-1,0.1-1.9,0.2-2.9,0.4c-0.8,0.2-1.5,0.4-2.3,0.6
	c-1,0.2-2,0.4-3,0.5c-2.6,0.4-5.3,0.8-7.9,0.5c-1.2-0.1-2.5-0.5-3-1.6c-0.2-0.6-0.3-1.2-0.3-1.8c0-1.6,0-3.2,0-4.8
	c0-1.6,0.1-3.3,0.9-4.8c0.2-0.5,0.5-0.8,1-1c0.3-0.1,0.6-0.1,0.8-0.1c1.4,0.1,2.9,0.1,4.1,0.7c1,0.5,1.7-1,2.7-0.5
	c1.9,0.9,0.6-1.7,2.6-0.9c0.5-1.4,2.4-0.6,2-2c-0.3-1.4,0.9-0.8,0.7-2.3c0-0.3-0.1-0.6-0.2-0.9C262.9,195.1,262.9,194.8,262.6,194.9
	z"/>
<path class="st5" d="M126.1,108.7c-1.1,0.6-2.3,0.5-3.6,0.5c-1.1,0-2.1,0-3.2,0.2c-0.4,0-0.8,0.1-1.1,0.3c-0.5,0.3-0.8,0.7-1,1.2
	c-0.4,0.8-0.7,1.7-0.9,2.6c-0.2,1.1-0.1,2.2-0.8,3c-0.9,1.1-2.3,0.9-3.5,1.2c-1.1,0.2-2.1,0.6-3.1,1.2c-1.9,1.1-3.2,3-3.6,5.2
	c0,0.2-0.1,0.5-0.1,0.7c0,0.7,0.1,1.4-0.1,2.1c0,0.2-0.1,0.4-0.1,0.5c0,0.1,0,0.1-0.1,0.1c0-0.3-0.1-0.6-0.1-0.9
	c-0.8-0.8-1.5-1.8-2.1-2.8c-0.2-0.2-0.3-0.4-0.4-0.6c-0.9-2-1.5-4.1-1.5-6.3c0-7.6,6.2-13.8,13.8-13.8
	C119.4,103,123.5,105.1,126.1,108.7L126.1,108.7z"/>
<path class="st1" d="M127,103.4c-0.7-1.6-2.2-2.7-3.7-3.6c-3-1.8-6.4-2.9-9.8-2.9c-1.8,0-3.5,0.2-5.2,0.5c-1.7,0.3-3.3,0.8-4.9,1.4
	c-2.6,1.1-4.9,2.8-6.7,4.9c-0.4,0-0.8,0.1-1.1,0.2c-1.5,0.4-2.8,1.2-4,2.1c-1,0.7-1.9,1.6-2.7,2.6c-0.9,1.3-1.5,2.7-1.8,4.2
	c-1,4.7,0.2,9.6,1.2,14.4c0.9,4.7,1.5,9.9-0.8,14.2c-0.9,1.6-2.1,3-3,4.6c-0.9,1.6-1.5,3.5-1,5.2c0.6,2.1,2.7,3.5,3.8,5.4
	c1.4,2.6,0.9,5.7-1.3,7.7c1.7,0.6,3.6-0.1,5.1-1c1.2-0.7,2.3-1.7,3-2.9c1.9-3.1,1.1-7.2,1.8-10.8c0.9-4.7,4.5-9,4-13.8
	c-0.3-3.2-2.5-5.9-4.1-8.7c-1.1-1.9-2-3.8-2.8-5.8c-0.5-1.5-1-3-0.7-4.5c0.1-0.5,0.2-0.9,0.4-1.3c0,0.1,0,0.1,0,0.2
	c0,1.4,0.4,2.8,0.9,4c2,4.1,7.3,5.6,9.6,9.6c0.6-0.7,1.3-1.5,1.6-2.4c0.2-0.8,0.1-1.7,0.2-2.6c0.1-2.4,1.6-4.7,3.6-6
	c0.9-0.6,2-1,3.1-1.2c1.2-0.2,2.6-0.1,3.5-1.2c0.6-0.8,0.6-2,0.8-3c0.1-0.9,0.4-1.8,0.9-2.6c0.2-0.5,0.6-0.9,1-1.2
	c0.4-0.2,0.7-0.3,1.1-0.3c1.1-0.1,2.1-0.2,3.2-0.2c1.2,0,2.6,0.1,3.6-0.5C127.4,107.2,127.7,105,127,103.4z"/>
<path class="st5" d="M277.5,88.5c0,0,0,0.1,0,0.1c-0.5,4.2-4.5,4-5.5,10.6c-0.4,2.6-4.3,3.1-6.9,3.8c-1.1-0.4-2.2-0.7-3.4-1.1
	c-2.6-0.9-0.8-2.3,0.3-3.9c3.6-4.9,4.3-11.7,8.4-16.2c1.5,2.9,3.9,5.2,6.8,6.6C277.4,88.5,277.4,88.5,277.5,88.5z"/>
<path class="st6" d="M277.6,86.1c0,0.6,0,1.3-0.1,1.9c-1.1,9.3-9.4,15.9-18.7,14.9c-9.3-1.1-15.9-9.4-14.9-18.7
	c1.1-9.3,9.4-15.9,18.7-14.9C271.1,70.3,277.6,77.5,277.6,86.1z"/>
<path class="st3" d="M284.4,88c1.9-0.1,3.8,0.7,5.6,1.4c7.1,3,14.2,6,20.6,10.3c3.1,2.2,6,4.6,8.9,7.1l11.9,10.1
	c2.3,1.9,4.6,3.9,6.4,6.2c1.1,1.5,2.1,3,2.9,4.6l1.8,3c0.7,1.2,1.3,2.4,1.9,3.7c0.9,2.3,1.2,5,3.1,6.7c1.2,1.1,2.9,1.6,4.4,2.3
	c1.5,0.7,3,2.1,2.9,3.7c0,1.1-0.6,2-1.1,3c-1,2-1.4,4.3-1.2,6.5l-19.4-14.8c-0.8-0.6-1.6-1.2-2.5-1.4c-1.2-0.3-2.5,0.2-3.7,0.6
	c-9.4,3.3-19.4,4.6-29.3,3.9c-4.4-0.4-8.8-1.1-12.7-3.3c-2.1-1.2-4-2.7-5.9-4.3c-2.3-1.9-4.7-3.9-6.7-6.1c-0.5-0.6-1.1-1.2-1.2-2
	c-0.1-0.6,0-1.2,0.1-1.8c0.4-4.1-3-7.5-4.1-11.4c-0.9-3.8,0.3-7.8,3.3-10.4c2.3,2,2.2,5.6,2,8.6c-0.4,4.1,0.8,6.2,0.4,10.3
	c1.5-0.1,1.2,0.9,1.8-0.4s0.8-2.8,0.9-4.3c0.4-5.3,1-10.6,1.6-15.8c0.3-2.6,0.6-5.3,1-7.9c0.2-1.6,0.2-3.1,1-4.5
	C280.1,89.6,282,88.1,284.4,88z"/>
<path class="st6" d="M286.9,92.8c1.2-0.4,2.6,0,3.8,0.3c2.2,0.6,4.4,1.3,6.5,2c1.8,0.6,3.6,1.2,5.1,2.3c1.6,1.2,2.7,2.7,3.8,4.3
	c0.8,1.1,1.6,2.3,2.2,3.6c0.7,1.7,0.9,3.5,1.1,5.4c0.1,0.8,0.1,1.6,0,2.4c-0.2,0.8-0.7,1.6-1.3,2.3c-0.9,1.1-2,2.1-3.2,2.9
	c-3.2,2.1-7,3-10.7,3.8c-3.3,0.7-6.7,1.3-10.1,1.6c-1.3,0.1-2.9,0-3.7-1.1c-0.2-0.3-0.4-0.7-0.5-1.1c-2-5.3-2.9-10.9-2.5-16.5
	c0-1,0.2-2,0.5-3c0.3-0.8,0.6-1.5,1-2.3c1-1.9,2.1-3.9,3.9-5.2c1.8-1.3,4.2-1.8,6.5-1.7"/>
<path class="st5" d="M299.3,112.8c-1.1,0.7-1.4,2.1-1.6,3.4c-0.6,5.4,1.7,10.7,1.5,16.2c-0.1,4.3-1.7,8.5-3.3,12.5
	c-2.7,6.9-4.1,14.3-4.7,21.6c-0.5,7.4-1.3,15-5.3,21.2c-0.9,1.4-1.9,2.7-2.8,4.1c-0.9,1.5-1.6,3.1-2.5,4.6
	c-2.4,4.6-5.5,8.7-9.2,12.3c-1.1,1.1-2.2,2.1-3.6,2.7c-1.8,0.8-3.8,0.8-5.6,0.1c-1.8-0.8-3.4-2.5-3.5-4.5c-0.1-1.8,1-3.4,2.1-4.8
	c3.6-4.8,7.8-9.2,12.4-13.1c0.8-0.7,1.7-1.4,2.2-2.5c0.5-1.2,0.3-2.5,0.4-3.7c0.1-2,0.9-3.9,1.3-5.9c1.9-7.9-1.5-16.6,1.3-24.3
	c0.6-1.7,1.5-3.3,1.7-5.1c0.2-1.3-0.2-2.7-0.9-3.6c-0.7-0.9-1.2-1.9-1.2-3.1c0-0.2,0-0.5,0-0.7c0.3-3.5,0.6-7.1,0.5-10.6
	c-0.2-3.6-0.9-7.1-2.5-10.2c-0.8-1.6-1.9-3.2-2.5-4.9c-0.8-2.9-0.1-5.9,1.2-8.6c1-2.1,2.3-4.1,4.1-5.5c3.4-2.7,8.5-3,12.1-0.8
	c2.7,1.6,4.6,4.4,6.1,7.2C298.2,108.7,299.4,110.5,299.3,112.8z"/>
<path class="st6" d="M299.9,112.8c-1.1,0.7-1.4,2.1-1.6,3.4c-0.6,5.4,1.7,10.7,1.5,16.2c-0.1,4.3-1.7,8.5-3.3,12.5
	c-2.7,6.9-4.1,14.3-4.7,21.6c-0.5,7.4-1.3,15-5.3,21.2c-0.9,1.4-1.9,2.7-2.8,4.1c-0.9,1.5-1.6,3.1-2.5,4.6
	c-2.4,4.6-5.5,8.7-9.2,12.3c-1.1,1.1-2.2,2.1-3.6,2.7c-1.8,0.8-3.8,0.8-5.6,0.1c-1.8-0.8-3.4-2.5-3.5-4.5c-0.1-1.8,1-3.4,2.1-4.8
	c3.6-4.8,7.8-9.2,12.4-13.1c0.8-0.7,1.7-1.4,2.2-2.5c0.5-1.2,0.3-2.5,0.4-3.7c0.1-2,0.9-3.9,1.3-5.9c1.9-7.9-1.5-16.6,1.3-24.3
	c0.6-1.7,1.5-3.3,1.7-5.1c0.1-1.3-0.2-2.7-0.9-3.6c-0.8-0.8-1.2-1.9-1.2-3.1c0-0.2,0-0.5,0-0.7c0.3-3.5,0.6-7.1,0.5-10.6
	c-0.2-3.6-0.9-7.1-2.5-10.2c-0.8-1.6-1.9-3.2-2.5-4.9c-0.8-2.9-0.1-5.9,1.2-8.6c1-2.1,2.3-4.1,4.1-5.5c3.4-2.7,8.5-3,12.1-0.8
	c2.7,1.6,4.6,4.4,6.1,7.2C298.8,108.7,299.9,110.5,299.9,112.8z"/>
<path class="st9" d="M327.2,183.1l-0.2,0.1"/>
<path class="st9" d="M280,195.1c0-0.1,0-0.2,0.1-0.3"/>
<path class="st3" d="M337.7,176.6c0.8-0.9,2-1.3,3.1-1.6c1.9-0.5,3.7-0.8,5.7-0.9c1.2-0.1,2.4-0.1,3.6,0.2c1.2,0.3,2.2,1,2.8,2
	c0.5,0.9,0.6,2,0.7,3c0.1,2.2,0.3,4.3-0.1,6.4c-0.2,1.3-0.6,2.6-0.9,4c-0.9,4.4-0.1,8.9-0.2,13.4c0,0.9-0.1,1.9-0.5,2.8
	c-0.4,0.9-1.2,1.6-1.9,2.3c-0.8,0.8-1.7,1.5-2.7,2c-1.5,0.8-3.2,0.9-4.8,0.9c-1,0-2,0-3-0.3s-1.8-1.2-1.8-2.2
	c-0.1-1.7,1.8-2.8,2.4-4.4c0.4-1.3-0.1-2.7-0.8-3.9c-1.1-1.9-2.7-3.4-4.6-4.4c-0.7-0.4-1.5-0.7-2-1.3c-0.6-0.5-1-1.4-0.7-2.2
	c0.3-0.9,1.4-1.3,2.3-1.4c1-0.1,2,0,2.8-0.5c0.8-0.4,1.3-1.1,1.7-1.9c0.8-1.6,0.9-3.5,0.3-5.3c-0.2-0.6-0.6-1.3-1-1.8
	c-0.4-0.5-1.2-0.9-1.5-1.5C335.9,179.1,337.1,177.4,337.7,176.6z"/>
<path class="st5" d="M322.1,137.6c-4.4-3.9-10.6-5-16.5-6.2c-3-0.6-6-1.3-8.9-2c-1.9-0.5-3.9-1-5.9-1.2c-2-0.1-4.1,0.1-5.8,1.2
	c-1.7,1-3,2.9-3,4.9c0,0.8,0.2,1.6,0.1,2.4c-0.1,1.3-0.8,2.4-1.3,3.6c-0.8,1.9-0.9,4-0.3,6c0.9,3.2,3.3,5.9,3.1,9.2
	c-0.4,5.4-0.2,11.1,0.9,16.4s2.5,10.7,2.5,16.1s-1.7,11.2-5.7,14.8c2.7,2.6,6.1,4.4,9.8,5.3c3.1,0.8,6.9,0.7,9.1-1.6
	c0.5-0.5,0.9-1.3,0.8-2c-0.1-0.5-0.3-0.9-0.6-1.3c-1.5-2.7-1.3-6.1-0.7-9.2s1.8-6,2.1-9.2c0.2-2.3,0-4.6,0.4-6.8
	c0.3-1.7,1.1-3.3,1.5-5c1.3-5-0.1-10.3-1.4-15.3c1.1,2.6,3.2,4.6,5.4,6.3c3.3,2.6,7.3,5,11.6,4.5c3.7-0.4,6.9-3,9.2-6.1
	c0-3.6,1.2-6.9,1-10.4c-0.1-1.6-0.4-3.1-0.8-4.6c-0.4-1.7-0.8-3.4-1.6-4.9C325.9,140.4,323.8,139.1,322.1,137.6z"/>
<path class="st6" d="M323,137.6c-4.4-3.9-10.6-5-16.5-6.2c-3-0.6-6-1.3-8.9-2c-1.9-0.5-3.9-1-5.9-1.2c-2-0.1-4.1,0.1-5.8,1.2
	c-1.7,1-3,2.9-3,4.9c0,0.8,0.2,1.6,0.1,2.4c-0.1,1.3-0.8,2.4-1.3,3.6c-0.8,1.9-0.9,4-0.3,6c0.9,3.2,3.3,5.9,3.1,9.2
	c-0.4,5.4-0.2,11.1,0.9,16.4s2.5,10.7,2.5,16.1s-1.7,11.1-5.8,14.8c2.7,2.6,6.1,4.4,9.8,5.3c3.1,0.8,6.9,0.7,9.1-1.6
	c0.5-0.5,0.9-1.3,0.8-2c-0.1-0.5-0.3-0.9-0.6-1.3c-1.5-2.7-1.3-6.1-0.7-9.2c0.7-3,1.8-6,2.1-9.2c0.2-2.3,0-4.6,0.4-6.8
	c0.3-1.7,1.1-3.3,1.5-5c1.3-5-0.1-10.3-1.4-15.3c1.1,2.6,3.2,4.6,5.4,6.3c3.3,2.6,7.3,5,11.6,4.5c3.7-0.4,6.9-3,9.2-6.1
	c0-3.6,1.2-6.9,1-10.4c-0.1-1.6-0.4-3.1-0.8-4.6c-0.4-1.7-0.8-3.4-1.6-4.9C326.8,140.4,324.7,139.1,323,137.6z"/>
<path class="st3" d="M292.1,205.6c-2-1.2-3.7-2.8-5-4.7c-0.5-0.7-0.9-1.4-1.5-2c-0.6-0.6-1.4-1-2.2-0.9c-0.9,0.1-1.7,0.8-2.3,1.5
	c-1.6,2-2.6,4.4-4.4,6.2c-2,2.1-4.9,3.2-7.7,4s-5.8,1.1-8.5,2c-0.9,0.3-1.8,0.7-2.3,1.5c-0.6,1-0.3,2.3,0.4,3.3
	c1.2,1.9,3.2,3.1,5.3,3.8c2.1,0.7,4.3,1,6.5,1.4c3.9,0.8,7.8,2,11.6,1.1c1.5-0.4,3-1,4.5-1.3c3.5-0.6,7.1,0.7,10.6,0.1
	c1.7-0.3,3.3-0.9,4.8-1.7c0.8-0.3,1.5-0.8,2.1-1.4c0.6-0.6,0.9-1.5,0.7-2.3c-0.1-0.5-0.4-0.9-0.6-1.3c-0.3-0.7-0.4-1.4-0.5-2.2
	c-0.3-2.8-0.8-5.7-1.5-8.4c-0.2-1-0.6-2-1.5-2.5c-0.2-0.1-0.4-0.1-0.6-0.1c-0.3,0.1-0.4,0.5-0.5,0.8c-0.8,2.7-3.7,4.3-6.4,3.5
	c-1-0.3-1.9-0.9-2.6-1.7"/>
<path class="st5" d="M277.6,86.1c0,0.6,0,1.3-0.1,1.9c-1.7,0.3-3.5-0.3-4.7-1.6c-0.6-0.6-1-1.3-1.6-1.9c-0.6-0.6-1.3-1.1-2.2-1.1
	c-0.7,0.1-1.3,0.5-1.8,1c-0.6,0.6-1.1,1.5-1.3,2.3c-0.2,0.6-0.3,1.3-0.8,1.7c-0.5,0.4-1.1,0.4-1.7,0.4c-0.8,0-1.6-0.1-2.3-0.4
	c-1.3-0.7-1.7-2.3-2.2-3.7c-0.8-2.3-2.6-6.8-5.4-7.2c-1.3-0.2-3,0.5-4,1.3c-1.6,1.2-2.8,1.9-4.8,1.9l0,0c3-8.8,12.6-13.5,21.5-10.5
	C273,72.5,277.6,78.9,277.6,86.1L277.6,86.1z"/>
<path class="st1" d="M244.7,80c-0.5,0-1-0.1-1.4-0.2c-1.3-0.5-1.9-2-2-3.4c-0.2-2.1,0.5-4.2,1.3-6.2c0.2-0.4,0.3-0.9,0.7-1.2
	c0.3-0.2,0.7-0.2,1-0.2c1.9-0.3,3.6-1.5,5-2.8c1.4-1.3,2.7-2.8,4.3-3.9c4.2-2.9,10.5-2.4,14.2,1.2c1.5,1.4,2.7,3.3,4.7,3.7
	c1.2,0.2,2.4-0.2,3.5,0.2c0.8,0.3,1.4,1,1.9,1.8c1.5,2.4,2.2,5.1,2.5,7.9c0.2,2.8,0,5.6-0.2,8.4c0,0.4-0.1,0.8-0.3,1.2
	c-0.2,0.2-0.4,0.4-0.6,0.5c-2.1,1-4.6,0.6-6.3-1.1c-0.6-0.6-1-1.3-1.6-1.9c-0.6-0.6-1.3-1.1-2.2-1.1c-0.7,0.1-1.3,0.5-1.8,1
	c-0.6,0.6-1.1,1.5-1.3,2.3c-0.2,0.6-0.3,1.3-0.8,1.7s-1.1,0.4-1.7,0.4c-0.8,0-1.6-0.1-2.3-0.4c-1.3-0.7-1.7-2.3-2.2-3.7
	c-0.8-2.3-2.6-6.8-5.4-7.2c-1.3-0.2-3,0.5-4,1.3C247.9,79.3,246.7,80.1,244.7,80z"/>
<path class="st5" d="M155.5,180.6c-0.2,1.2-1.3,2.2-2.1,3.2c-2.2,2.6-4.3,5.2-6.8,7.6c-2.6,2.6-5.4,4.8-8.3,7.1l-3.7,2.9
	c-0.5,0.4-1,0.7-1.6,0.9c-0.7,0.2-1.4,0.1-2-0.2c0.1-0.1,0.1-0.2,0.2-0.3l4.4-7.4c0.9-1.5,1.4-2.8,2.4-4.1c1.5-2,3-4.1,4.8-5.8
	c2.3-2.2,5.3-3.8,8.1-5.4c0.4-1.2,2.1-1.5,3.2-1c0.4,0.2,0.8,0.5,1.1,0.9C155.5,179.5,155.6,180,155.5,180.6z"/>
<path class="st1" d="M136,194.7l-4.4,7.4c-0.2,0.3-0.4,0.6-0.3,1c0.1,0.3,0.3,0.5,0.5,0.7c1.7,1.4,3.6,2.8,4.1,4.9
	c0.4,1.5,0,3.1,0.4,4.6c0.6,2.7,3.4,4.4,6,5.4c5.8,2.3,12.3,3.3,18.4,2.2s12-4.3,16-9.1c1.2-1.5,2.3-3.1,3.4-4.7
	c3.2-4.3,7.3-7.7,11.4-11.2c5.3-4.4,8.3-11.1,12.9-16.2c0.8-0.9,1.8-1.9,3-2.2c0.7-0.2,1.6,0.1,1.6,0.8c0.1,1.3,1.1,2.5,1.9,3.6
	c2.8,4.3,5.7,8.7,10,11.4c2.4,1.5,5,2.4,7.7,3.2c6.8,2.1,13.7,3.8,20.5,5.4c0.4-0.7,0.8-1.3,1.2-2c0.7-0.9,1.6-1.5,2.4-2.4
	c1.3-1.6,1.8-3.7,2.2-5.7c-4.1-2.5-8.3-5.1-12.4-7.7c-2-1.3-4.1-2.7-5.7-4.4c-1.1-1.2-2-2.5-3.1-3.7c-1.1-1.1-2.3-2.2-3.6-3.2
	l-9.7-7.8c-2.8-2.2-5.6-4.6-8.3-6.9c-1.5-1.3-3.2-2.7-5.2-2.7c-1.7-0.1-3.3,0.9-4.8,1.8c-8.7,5.2-17.5,10.2-26.4,14.9
	c-1.8,0.9-3.6,1.9-5.4,3c-3.4,2.1-6.3,4.8-8.8,7.9c-0.5,0.6-1,1.2-1.8,1.1c-0.2,0-0.4-0.1-0.6-0.2c-1.1-0.6-1.8-1.8-2.4-2.8
	c-0.6-1.1-1.3-2.2-2.5-2.8c-1.1-0.6-2.8-0.2-3.2,1c-2.8,1.6-5.7,3.2-8.1,5.4c-1.8,1.7-3.3,3.8-4.8,5.8
	C137.5,191.9,136.9,193.2,136,194.7z"/>
<path class="st5" d="M128.8,149.6c0,0,4.4,2,7.6,4.2"/>
<path class="st1" d="M350.9,153.6c0.1,2.5,0.1,5,0.1,7.5c0,1.3-0.1,2.7-0.7,3.9c-0.5,0.8-1.2,1.5-1.9,2.1l-4.4,4
	c-1.4,1.2-2.9,2.6-4.7,2.9c-2.1,0.4-4.1-0.7-6.2-1.3s-4.1-1.1-6.3-1.1c-1.2,0-2.5,0.1-3.7-0.1c-0.9-0.2-1.7-0.4-2.6-0.7l-4-1.4
	c0.1-1,1.1-1.6,1.9-2.3c2.9-2.3,4.1-6.1,5-9.6c0.7-2.8,1.3-5.6,1.6-8.5c0.1-1.4,0.2-2.9-0.1-4.3c-0.3-1.1-0.7-2.2-1.2-3.3l-1.4-3.2
	c-0.8-1.8-2.4-2.6-4.1-3.6c2.5,0.9,5.5,1.3,7.4,3.2c0.4,0.4,0.8,0.8,1.3,1c0.5,0.2,1.1,0.3,1.7,0.4c2.8,0.4,5.2,2.2,7.5,3.8
	c2.8,2,5.7,3.9,8.8,5.6c1.3,0.8,2.7,1.6,3.9,2.6c1.1,1.1,2,2.5,2.1,4.1"/>
<path class="st5" d="M109.4,149.2c-3.5,0.7-5.4,4.8-5.2,8.4c0.2,3.2,1.5,6.2,3.7,8.6c1.5,1.6,3.3,2.7,4.6,4.4c2,2.5,2.6,5.7,4.4,8.3
	c1.3,1.9,3.1,3.4,4.8,4.8c4.1,3.3,8.3,6.4,12.7,9.3c1.8,1.2,3.7,2.4,5.9,2.3c2-0.1,3.9-1.2,5.2-2.7c1.3-1.5,2.2-3.4,3-5.2
	c3.1-6.7,6.2-13.5,7.6-20.7c0.5-2.3,0.8-4.6,1.8-6.7c0.8-1.6,2-3,3.1-4.5c2.5-3.5,4.3-7.4,5.2-11.6c0.6-2.7,0.8-5.7-0.2-8.3
	s-3.3-4.9-6.1-5.1c-2.2-0.2-4.4,1-5.8,2.6s-2.3,3.7-3,5.9c-0.9,3.1-1.2,6.2-1,9.4c0.2,2.6,0.7,5.1,0.2,7.7c-0.3,1.8-1.1,3.4-1.9,5.1
	c-2,4.2-4,8.5-7,12.1c-1,1.2-2.3,2.3-3.8,2.1c-2.1-0.4-2.6-3-3.6-4.8c-1.3-2.3-3.6-3.6-5.5-5.4c-2.7-2.6-4.3-6-6.1-9.2
	c-1.9-3.2-4.3-6.3-7.8-7.5c-3.5-1.2-8.1,0.4-9,3.9"/>
<path class="st5" d="M112.1,151.7c-3.5,0.7-8,1.2-7.8,4.7c0.2,3.2,1.5,6.2,3.7,8.6c1.5,1.6,3.3,2.7,4.6,4.4c2,2.5,2.6,5.7,4.4,8.3
	c1.3,1.9,3.1,3.4,4.8,4.8c4.1,3.3,8.3,6.4,12.7,9.3c1.8,1.2,3.7,2.4,5.9,2.3c2-0.1,3.9-1.2,5.2-2.7c1.3-1.5,2.2-3.4,3-5.2
	c3.1-6.7,6.2-13.5,7.6-20.7c0.5-2.3,0.8-4.6,1.8-6.7c0.8-1.6,2-3,3.1-4.5c2.5-3.5,4.3-7.4,5.2-11.6c0.6-2.7,0.8-5.7-0.2-8.3
	c-1-2.6-3.3-4.9-6.1-5.1c-2.2-0.2-4.4,1-5.8,2.6s-2.3,3.7-3,5.9c-0.9,3.1-1.2,6.2-1,9.4c0.2,2.6,0.7,5.1,0.2,7.7
	c-0.3,1.8-1.1,3.4-1.9,5.1c-2,4.2-4,8.5-7,12.1c-1,1.2-2.3,2.3-3.8,2.1c-2.1-0.4-2.6-3-3.6-4.8c-1.3-2.3-3.6-3.6-5.5-5.4
	c-2.7-2.6-4.3-6-6.1-9.2c-1.9-3.2-4.3-6.3-7.8-7.5c-3.5-1.2,0.9,6.6,0,10.2"/>
<path class="st7" d="M109.4,148.6c-3.5,0.7-5.4,4.8-5.2,8.4c0.2,3.2,1.5,6.2,3.7,8.6c1.5,1.6,3.3,2.7,4.6,4.4c2,2.5,2.6,5.7,4.4,8.3
	c1.3,1.9,3.1,3.4,4.8,4.8c4.1,3.3,8.3,6.4,12.7,9.3c1.8,1.2,3.7,2.4,5.9,2.3c2-0.1,3.9-1.2,5.2-2.7c1.3-1.5,2.2-3.4,3-5.2
	c3.1-6.7,6.2-13.5,7.6-20.7c0.5-2.3,0.8-4.6,1.8-6.7c0.8-1.6,2-3,3.1-4.5c2.5-3.5,4.3-7.4,5.2-11.6c0.6-2.7,0.8-5.7-0.2-8.3
	c-1-2.6-3.3-4.9-6.1-5.1c-2.2-0.2-4.4,1-5.8,2.6s-2.3,3.7-3,5.9c-0.9,3.1-1.2,6.2-1,9.4c0.2,2.6,0.7,5.1,0.2,7.7
	c-0.3,1.8-1.1,3.4-1.9,5.1c-2,4.2-4,8.5-7,12.1c-1,1.2-2.3,2.3-3.8,2.1c-2.1-0.4-2.6-3-3.6-4.8c-1.3-2.3-3.6-3.6-5.5-5.4
	c-2.7-2.6-4.3-6-6.1-9.2c-1.9-3.2-4.3-6.3-7.8-7.5c-3.5-1.2-8.1,0.4-9,3.9"/>
<g class="st10">
	<path d="M96,127.1c-1.1-1.9-2-3.8-2.8-5.8l-0.1-0.3c-0.6-0.6-1.1-1.3-1.4-2c-0.6-1.3-0.9-2.6-0.9-4c0-0.1,0-0.1,0-0.2
		c-0.2,0.4-0.3,0.9-0.4,1.3c-0.3,1.5,0.2,3.1,0.7,4.5c0.8,2,1.7,4,2.8,5.8c1.7,2.8,3.8,5.5,4.1,8.7c0.5,4.8-3.1,9-4,13.8
		c-0.7,3.6,0.2,7.7-1.8,10.8c-0.8,1.2-1.8,2.2-3,2.9c-0.8,0.5-1.6,0.9-2.5,1.1c-0.2,0.2-0.3,0.4-0.5,0.5c1.7,0.6,3.6-0.1,5.1-1
		c1.2-0.7,2.3-1.7,3-2.9c1.9-3.1,1.1-7.2,1.8-10.8c0.9-4.7,4.5-9,4-13.8C99.8,132.5,97.6,129.9,96,127.1z"/>
	<path d="M127,103.4c-0.7-1.6-2.2-2.7-3.7-3.6c-1.9-1.1-4-2-6.1-2.5c1.4,0.5,2.7,1.1,4,1.9c1.5,0.9,3,2,3.7,3.6s0.4,3.8-1.2,4.7
		c-1.1,0.6-2.4,0.5-3.6,0.5c-1.1,0-2.1,0-3.2,0.2c-0.4,0-0.8,0.1-1.1,0.3c-0.5,0.3-0.8,0.7-1,1.2c-0.4,0.8-0.7,1.7-0.9,2.6
		c-0.2,1-0.1,2.2-0.8,3c-0.9,1.1-2.3,0.9-3.5,1.2c-1.1,0.2-2.1,0.6-3.1,1.2c-2.1,1.2-3.5,3.5-3.6,6c0,0.9,0.1,1.8-0.2,2.6
		c-0.2,0.5-0.4,0.9-0.7,1.3c0.5,0.5,0.9,1.1,1.2,1.7c0.6-0.7,1.3-1.5,1.6-2.4c0.2-0.8,0.1-1.7,0.2-2.6c0.1-2.4,1.6-4.7,3.6-6
		c0.9-0.6,2-1,3.1-1.2c1.2-0.2,2.6-0.1,3.5-1.2c0.6-0.8,0.6-2,0.8-3c0.1-0.9,0.4-1.8,0.9-2.6c0.2-0.5,0.6-0.9,1-1.2
		c0.4-0.2,0.7-0.3,1.1-0.3c1.1-0.1,2.1-0.2,3.2-0.2c1.2,0,2.6,0.1,3.6-0.5C127.4,107.2,127.7,105,127,103.4z"/>
</g>
<path class="st5" d="M109.4,129.1c0,0,3.2,2.7,9.2,1.1C118.6,130.2,114.9,131.7,109.4,129.1z"/>
</svg>
