<?xml version="1.0" encoding="utf-8"?>
<!-- Generator: Adobe Illustrator 24.1.0, SVG Export Plug-In . SVG Version: 6.00 Build 0)  -->
<svg version="1.1" id="Layer_1" xmlns="http://www.w3.org/2000/svg" xmlns:xlink="http://www.w3.org/1999/xlink" x="0px" y="0px"
	 viewBox="0 0 24.3 20.7" style="enable-background:new 0 0 24.3 20.7;" xml:space="preserve">
<style type="text/css">
	.st0{fill:#F24900;}
</style>
<path class="st0" d="M24,3.3c-1.5,0.1-1.5,0.1-1.6,0.1l0.9-2.6c0,0-2.8,1-3.5,1.2c-1.9-1.7-4.6-1.7-6.6-0.5c-1.6,1-2.5,2.7-2.2,4.7
	C7.8,5.8,5.2,4.3,3.1,1.8L2.4,1L1.9,1.9C1.3,3,1.1,4.3,1.3,5.6c0.1,0.5,0.3,1,0.5,1.4L1.3,6.8L1.2,7.7c-0.1,1,0.3,2.1,0.9,3
	c0.2,0.3,0.4,0.5,0.7,0.8l-0.3,0l0.4,1.1c0.5,1.4,1.4,2.5,2.7,3.1c-1.3,0.5-2.3,0.9-4,1.4L0,17.7l1.4,0.8c0.5,0.3,2.5,1.3,4.4,1.6
	c4.2,0.7,8.9,0.1,12.1-2.7c2.7-2.4,3.6-5.9,3.4-9.4c0-0.5,0.1-1.1,0.4-1.5C22.3,5.6,24,3.3,24,3.3z M20.6,5.6
	c-0.5,0.7-0.7,1.5-0.7,2.4c0.2,3.6-0.8,6.4-2.9,8.3c-2.5,2.2-6.5,3.1-11,2.4c-0.8-0.1-1.7-0.4-2.4-0.7c1.4-0.5,2.5-0.9,4.3-1.8
	l2.5-1.2l-2.7-0.2c-1.3-0.1-2.4-0.7-3-1.7c0.4,0,0.7-0.1,1-0.2l2.6-0.7l-2.6-0.6c-1.3-0.3-2-1.1-2.4-1.7C3,9.6,2.8,9.2,2.7,8.8
	C3,8.9,3.3,9,3.8,9l2.4,0.2L4.3,7.8C2.9,6.7,2.4,5.1,2.8,3.5c4.3,4.5,9.4,4.1,9.9,4.2c-0.1-1.1-0.1-1.1-0.1-1.2
	c-0.7-2.3,0.8-3.5,1.4-3.9c1.3-0.8,3.5-1,5,0.4c0.3,0.3,0.8,0.4,1.2,0.3c0.4-0.1,0.7-0.2,1-0.3l-0.6,1.7l0.8,0
	C21,5.1,20.8,5.3,20.6,5.6z"/>
</svg>
